<svg xmlns="http://www.w3.org/2000/svg" viewBox="0 0 32 32">
  <title>Cartoon Academic Book Favicon</title>
  <!-- 书本主体 -->
  <g>
    <path d="M6 8 Q4 16 6 24 Q16 28 26 24 Q28 16 26 8 Q16 4 6 8 Z" fill="#4A90E2" stroke="#2563A6" stroke-width="1.5"/>
    <!-- 书页 -->
    <path d="M8 10 Q7 16 8 22 Q16 25 24 22 Q25 16 24 10 Q16 7 8 10 Z" fill="#fff" stroke="#B3D4FC" stroke-width="1"/>
    <!-- 微笑表情 -->
    <ellipse cx="12.5" cy="16" rx="1.2" ry="1.5" fill="#FFD600"/>
    <ellipse cx="19.5" cy="16" rx="1.2" ry="1.5" fill="#FFD600"/>
    <path d="M13.5 19 Q16 21 18.5 19" stroke="#FFD600" stroke-width="1.2" fill="none" stroke-linecap="round"/>
    <!-- 跳跃感的书页 -->
    <path d="M10 9 Q12 6 16 8 Q20 6 22 9" stroke="#FFD600" stroke-width="1" fill="none"/>
  </g>
</svg>
